<svg id="Capa_1" data-name="Capa 1" xmlns="http://www.w3.org/2000/svg" viewBox="0 0 142.42 221.96"><defs><style>.cls-1{fill:#204695;}.cls-2{fill:#f09d7b;}.cls-3{fill:#40312e;}.cls-4{fill:#0f5428;}.cls-5{fill:#3c4596;}.cls-6{fill:#fff;}.cls-7{fill:#fbd2bc;}</style></defs><polygon class="cls-1" points="53.2 139.09 61.97 144.17 67.55 144.17 91.25 133.6 107.62 221.96 38.92 221.96 53.2 139.09"/><polygon class="cls-2" points="27.15 123.35 61.92 144.38 67.5 144.38 104.37 127.94 113.83 112.39 114.11 101.18 106.09 70.11 103.08 83.21 97.59 65.8 84.51 50.97 72.48 66.1 72.48 55.15 68.41 47.19 55.15 63.48 38.74 70.02 41.92 60.27 40.8 52.87 35.75 64 28.32 68.49 30.34 64.45 30.63 59.67 25.74 65.69 27.15 123.35"/><polygon class="cls-3" points="99.2 15.17 83.85 0 90.09 15.39 88.44 15.17 86.02 12.03 60.31 18.2 24.18 10.61 33.67 21.37 38.78 22.72 31.95 23.54 27.46 26.72 23.09 27.73 15.92 51.34 0 76.45 11.36 87.62 1.68 90.5 11.96 96.18 26.98 111.54 25.78 65.65 30.68 59.63 30.38 64.42 28.36 68.45 35.8 63.97 40.84 52.84 41.96 60.23 38.78 69.98 55.19 63.45 68.45 47.16 72.53 55.11 72.53 66.06 84.56 50.93 97.64 65.76 103.13 83.17 106.01 69.57 114.15 101.15 114.6 107.16 128.67 87.15 130.27 69.01 142.42 69.41 130.47 58.05 127.28 45.9 104.16 20.59 101.57 19.79 102.57 18.6 105.76 13.81 99.2 15.17"/><polygon class="cls-4" points="42.98 74.07 52.7 74.07 52.9 100.23 43.18 99.08 42.98 74.07"/><polygon class="cls-4" points="78.16 74.07 87.32 74.07 87.32 99.03 79.2 100.82 78.36 100.63 78.16 74.07"/><path class="cls-3" d="M183.65,668.65c1.2,0,23.47-6.43,23.47-6.43l-3.63-1,7.29-4.2-5.6.31,12.88-34.57L204,642.8l-.76,5.23-19.57,20.84" transform="translate(-89.38 -535.64)"/><polygon class="cls-3" points="51.79 138.25 79.35 139.09 67.5 144.38 61.92 144.38 51.79 138.25"/><path class="cls-5" d="M428.74,471.91" transform="translate(-89.38 -535.64)"/><polygon class="cls-6" points="65.57 151.22 59.15 154.41 53.15 139.18 57.08 141.45 65.57 151.22"/><polygon class="cls-6" points="81.23 138.25 85.36 136.42 72.15 156.16 65.56 151.24 81.23 138.25"/><polygon class="cls-2" points="67.5 144.38 61.92 144.38 57.08 141.45 65.56 151.24 81.23 138.25 67.5 144.38"/><path class="cls-7" d="M153.85,685.62" transform="translate(-89.38 -535.64)"/><polyline class="cls-7" points="60.87 153.55 62.31 152.84 63.85 152.07"/><polyline class="cls-6" points="72.15 156.16 85.36 136.42 87.03 135.67"/><polygon class="cls-3" points="56.64 140.04 56.3 151.85 57.53 146.28 56.64 140.04"/></svg>